<?xml version="1.0" encoding="UTF-8"?>
<svg id="Ebene_1" data-name="Ebene 1" xmlns="http://www.w3.org/2000/svg" viewBox="0 0 925.59 489.57">
  <defs>
    <style>
      .cls-1 {
        fill: #0f447e;
        stroke-width: 0px;
      }

      .cls-2 {
        fill: #1d1d1b;
        font-size: 250px;
      }

      .cls-2, .cls-3 {
        font-family: SourceSansPro-Light, 'Source Sans Pro';
        font-weight: 300;
      }

      .cls-4 {
        fill: none;
        stroke: #0f447e;
        stroke-miterlimit: 10;
        stroke-width: 7.74px;
      }

      .cls-5 {
        letter-spacing: -.01em;
      }

      .cls-3 {
        fill: #1c93d2;
        font-size: 60px;
      }
    </style>
  </defs>
  <g>
    <path class="cls-1" d="M244.78,0C109.59,0,0,109.59,0,244.78s109.59,244.78,244.78,244.78c5.91,0,11.76-.22,17.56-.63-35.74-15.07-72.01-28.52-109.24-40.32-2.18-.67-3.28-1-5.47-1.66.98-1.93,1.47-2.9,2.44-4.82,5.02-9.81,10.1-19.58,15.21-29.33h147.86s-.12-.54-.34-1.54H85.13s30.09-219.52,105.53-219.52c24.96,0,46.81,24.03,64.88,56.18,8.77-15.65,17.54-31.29,26.3-46.94.94-1.69,1.42-2.54,2.36-4.23,1.97.54,2.96.82,4.92,1.36,63.01,17.31,126.05,34.4,188.6,53.34,2.09.64,3.14.96,5.23,1.61-1.26,1.94-1.89,2.9-3.15,4.84-45.77,69.7-93.02,138.26-134.9,210.31,85.27-38.27,144.66-123.91,144.66-223.43C489.57,109.59,379.97,0,244.78,0ZM190.66,175.98c-33.06,0-59.85-26.94-59.85-60.18s26.8-60.17,59.85-60.17,59.86,26.94,59.86,60.17-26.8,60.18-59.86,60.18Z"/>
    <path class="cls-1" d="M319.32,426.91c-6.04,10.43-9.02,15.68-14.86,26.31,8.89,3.54,13.29,5.32,22.07,8.93,6.09-10.81,9.18-16.15,15.45-26.74-9.02-3.43-13.55-5.13-22.66-8.49Z"/>
    <path class="cls-1" d="M366.59,349.87c-6.52,10.16-9.74,15.25-16.13,25.45,9.54,3.09,14.28,4.65,23.74,7.79,6.57-10.32,9.9-15.45,16.57-25.7-9.63-3.03-14.46-4.54-24.19-7.53Z"/>
    <path class="cls-1" d="M416.63,273.31c-6.77,10.27-10.14,15.39-16.86,25.61,10.01,2.9,14.97,4.35,24.84,7.26,6.8-10.23,10.21-15.35,17.01-25.6-9.91-2.91-14.91-4.37-25-7.27Z"/>
  </g>
  <path class="cls-4" d="M88.15,409.79c2.33-15.1,10.21-61.99,24.54-108.33,15.62-50.53,42.16-110.76,79.92-110.76s67.66,60.14,85.96,110.6c16.68,46,27.01,92.54,30.18,107.8l-220.61.69Z"/>
  <text class="cls-2" transform="translate(597.76 330.18)"><tspan x="0" y="0">ZIS</tspan></text>
  <text class="cls-3" transform="translate(740.58 401.33)"><tspan x="0" y="0">@</tspan><tspan class="cls-5" x="48.66" y="0">g</tspan><tspan x="77.1" y="0">esis</tspan></text>
</svg>